<svg xmlns="http://www.w3.org/2000/svg" viewBox="0 0 300 74"><path d="M117.22 0q2.43 1.85 1.12 5.47a1.71 1.68 84.3 0 1-.7.87q-2.13 1.34-5.09 1.88a.85.84-7.1 0 1-.99-.76l-.11-1.52a.77.77 0 0 0-.77-.72q-24.37.02-48.16 3.13-6.65.87-13.44 2.27c-9.22 1.89-13.44 2.52-19.46 4.76a.16.16 0 0 0 .07.31q2.85-.19 5.7.61c4.37 1.24 5.41 4.19 6.37 8.18a.23.23 0 0 0 .38.1l12.92-12.92a1.6 1.6 0 0 1 2.53.35l.39.71a2.71 2.7 51.6 0 1-.36 3.14L39.34 35.95a.25.25 0 0 0 .19.42q7.97-.03 10.81.31 4.29.52 2.43 5.27a.93.92 33 0 1-1.52.32l-1.22-1.22a.71.69-24.7 0 0-.56-.2l-15.2 1.1a3.55 3.55 0 0 0-2.24 1.03q-9.51 9.51-21.41 21.64-2.41 2.46-5.8 7.9a1.84 1.84 0 0 1-2.93.25l-.02-.03a3.45 3.44-51.4 0 1-.44-3.98q2.93-5.25 5.96-8.63 7.58-8.45 15.99-16.77a.28.28 0 0 0-.22-.48q-9.26.73-20.67 1.78-1.48.13-2.49-1.42v-3.25l28.64-3.03a2.54 2.52 23.8 0 0 1.23-.47c3.92-2.82 9.75-7.79 9.05-13.3a1.79 1.69 23.1 0 0-.39-.9c-4.06-4.88-17.05-.84-22.26.87-2.47.82-4.13 1.01-4.53-1.95-.77-5.74 16.39-11.33 21.97-13.04Q51.72 2.64 78.52 0z"/><rect width="12.9" height="4.4" x="-6.45" y="-2.2" rx="1.95" transform="rotate(-38.1 148.637 -318.232)"/><path d="M300 36.17v1.68q-1.68 3.27-5.93 5.21-15.82 7.24-32.09 12.21-2.85.87-6.23-.28c-5.32-1.81-5.35-7.63-2.48-11.66a.24.24 0 0 0-.3-.36L239.83 49a1.35 1.35 0 0 0-.79 1.23l-.03 3.72a.78.73 59.1 0 1-.07.32q-2.85 6.46-9.35 8.18-2.82.75-4.34-.6c-5.14-4.59 5.5-11.6 9.43-14.27a.46.44 60.8 0 0 .15-.56l-1.89-4.13a.12.12 0 0 0-.18-.04q-9.69 6.99-21.37 9.04-2.75.48-4.96-.46a3.49 3.42 75.4 0 1-.9-.54q-2.19-1.8-1.52-5.08a.41.41 0 0 0-.56-.46q-13.27 5.52-22.49 8.59c-3.3 1.1-7.09 2.27-10.54 1.14q-5.4-1.77-4.35-7.83c.18-.97.64-1.48.78-2.08a.33.33 0 0 0-.47-.38c-4.43 2.3-10 5.02-14.41 4.34a2.11 2.04-21.3 0 1-.95-.4q-3.89-2.96-1.75-8.1a.41.41 0 0 0-.56-.53q-8.75 4.12-18.16 10.08c-2.06 1.3-4.3.17-4.59-2.3a.44.44 0 0 0-.64-.34c-4.04 2.11-10.12 5.5-14.74 3.42q-3.92-1.76-3.1-6.62a.47.47 0 0 0-.65-.51q-10.1 4.36-13.38 5.82c-2.49 1.11-5.81 1.47-6.77-1.37-.49-1.46.3-2.77 1.18-3.93a.27.26 13.4 0 0-.26-.42c-3.95.71-9.22 2.74-10.14-3.36a.75.75 0 0 0-1.08-.56q-10.2 5.25-21.01 12.85-2.57 1.8-4.63.22a2.53 1.99-52.8 0 1-.06-3.19c3.47-4.67 9.47-9.77 20.15-20.14a2.53 2.53 0 0 1 3.63.1l.18.2a2.48 2.48 0 0 1-.28 3.5l-6 5.12a.29.29 0 0 0 .33.47c3.1-1.79 6.95-4.81 10.4-2.93a.62.59-88.8 0 1 .23.25l1.73 3.77a1.31 1.29 76.8 0 0 1.21.76q5.43-.13 9.79-1.77a5.01 4.82 14.7 0 0 1.25-.7c4.38-3.43 15.07-10.81 20.74-6.28q3.43 2.74 1.16 8.11a.88.87-78.1 0 1-.82.54c-2.52-.03-2.41-3.5-2.02-5.38a.73.73 0 0 0-.92-.84q-8.86 2.56-15.7 8.58a.19.19 0 0 0 .2.31q2.69-1.18 10.39-4.57c2.08-.91 4.83-.89 5.99 1.43.86 1.73-.48 4.88-.98 6.83a.73.73 0 0 0 .8.91q3.26-.44 5.79-1.49 10.16-4.21 14.43-7.36 3.28-2.43 9.88-9.99a2.38 2.37-47.8 0 1 3.41-.17l.18.16a2.34 2.34 0 0 1 .16 3.34l-6.45 6.98a.23.22-83.1 0 0 .27.35q5.4-3.11 9.37-4.84.94-.41 1.96-.19c5.04 1.09 2.49 6.99 1.16 9.82a.5.49 6.2 0 0 .56.69c7.04-1.57 14.98-4.1 21.05-8.37 3.58-2.52 14.14-8.46 15.92-.76q.31 1.32-.95 4.45a.63.63 0 0 1-.78.36c-1.82-.59-2.55-1.66-2.16-3.39q.1-.47.08-.62a.49.48 77.8 0 0-.63-.41q-8.8 2.89-14.05 10.62-1.11 1.63-1.25 3.41a1 1 0 0 0 1.1 1.07q2.71-.3 5.41-1.2 16.68-5.6 30.9-11.61a1.34 1.18 9.8 0 0 .34-.21l6.74-5.76a2.4 2.39 57.5 0 1 3.73.83l.23.51a2.34 2.34 0 0 1-.92 2.99q-5.83 3.48-9.5 10.18a.3.3 0 0 0 .3.44c7.97-1.15 16.99-4.04 23.66-8.9a1.17 1.13 74.7 0 0 .47-.85c.4-5.1 9.31-11.23 13.69-14.25 2.75-1.89 6.18-2.61 6.71 1.99a1.39 1.39 0 0 1-1.6 1.53q-.12-.02-.36-.09a1.6 1.6 0 0 0-1.28.18q-8.8 5.44-12.47 10.58-2.34 3.28-.17 7.14a.7.7 0 0 0 .92.28q8.92-4.4 18.22-6.43a2.99 2.94 18.1 0 0 1.23-.61q3.5-2.91 7.95-4.88c5.69-2.51 12.62-.57 8.96 7.14a.61.6-68.3 0 1-.73.32q-2.96-.95-2.12-3.96a.41.41 0 0 0-.52-.5q-7.03 2.36-12 7.81-2.28 2.5-3.4 6.16a.85.84-83.8 0 0 .87 1.09q3-.24 6.99-1.61Q281.9 43.82 300 36.17m-65.602 17.233a3.08.35-40.9 0 0-2.557 1.753 3.08.35-40.9 0 0-2.099 2.28 3.08.35-40.9 0 0 2.557-1.751 3.08.35-40.9 0 0 2.099-2.282"/></svg>